<?xml version="1.0" encoding="UTF-8"?>
<svg width="240px" height="57px" viewBox="0 0 240 57" version="1.1" xmlns="http://www.w3.org/2000/svg" xmlns:xlink="http://www.w3.org/1999/xlink">
    <title>编组 8</title>
    <g id="ZenData" stroke="none" stroke-width="1" fill="none" fill-rule="evenodd">
        <g id="编组-8" fill-rule="nonzero">
            <path d="M56.9200224,28.4559065 C56.9133919,38.2148983 51.9104335,47.2909586 43.662398,52.5070754 C35.4143625,57.7231923 25.0699017,58.3529501 16.2500224,54.1759065 L15.6400224,53.8759065 C6.03892314,49.0421599 -0.0134365146,39.2051405 0,28.4559065 C0,28.1459065 0,27.8459065 0,27.5359065 C0.0449099002,25.6276928 0.296376773,23.7299562 0.750022401,21.8759065 C1.07155571,20.4685874 1.50973677,19.0904913 2.0600224,17.7559065 C2.86279234,15.7588828 3.89648808,13.8626552 5.1400224,12.1059065 C5.72480303,11.2745008 6.35579573,10.4765788 7.0300224,9.71590652 C14.835755,0.795844164 27.354053,-2.35001663 38.4493833,1.82018973 C49.5447135,5.99039609 56.8919481,16.6027647 56.8900224,28.4559065 L56.9200224,28.4559065 Z" id="路径" fill="#38A0FC"></path>
            <path d="M111.280022,36.7159065 C111.584267,36.6795287 111.88519,36.6193441 112.180022,36.5359065 C112.89554,36.3842206 113.639896,36.44683 114.320022,36.7159065 C114.985798,36.9734248 115.5553,37.431123 115.950022,38.0259065 L116.740022,39.2059065 C116.580022,39.2859065 116.350022,39.3959065 116.050022,39.5159065 L115.980022,39.5159065 L114.750022,39.9359065 C114.299642,40.09781 113.838525,40.2281258 113.370022,40.3259065 C112.630022,40.4959065 111.770022,40.6359065 110.780022,40.7659065 C109.764733,40.8892011 108.742765,40.9491171 107.720022,40.9459065 C105.96454,40.9787226 104.213412,40.7598316 102.520022,40.2959065 C101.164899,39.9425948 99.9047658,39.2937458 98.8300224,38.3959065 C97.8451272,37.5120461 97.1046466,36.3892709 96.6800224,35.1359065 C96.2071347,33.6470772 96.0006362,32.0864901 96.0700224,30.5259065 C96.0855447,28.9785661 96.3943321,27.4482019 96.9800224,26.0159065 C97.4921474,24.7190116 98.2843416,23.5512081 99.3000224,22.5959065 C100.345,21.6314518 101.582037,20.8987711 102.930022,20.4459065 C104.477699,19.9513811 106.09544,19.7115906 107.720022,19.7359065 C109.323546,19.6977452 110.922189,19.9275713 112.450022,20.4159065 C113.651932,20.8088136 114.74934,21.4686262 115.660022,22.3459065 C116.482602,23.1649384 117.102413,24.1648554 117.470022,25.2659065 C117.828871,26.4549251 117.991007,27.6945936 117.950022,28.9359065 L117.950022,29.7759065 C117.961119,30.3129771 117.755699,30.8319337 117.380022,31.2159065 C116.988914,31.5418416 116.488227,31.7063529 115.980022,31.6759065 L102.450022,31.6759065 C102.405102,32.4129968 102.496636,33.1520468 102.720022,33.8559065 C102.912641,34.4885133 103.255777,35.0649823 103.720022,35.5359065 C104.254794,36.0134479 104.895928,36.3563002 105.590022,36.5359065 C106.488459,36.8027147 107.423056,36.9275526 108.360022,36.9059065 C109.337036,36.9279277 110.314101,36.8643515 111.280022,36.7159065 L111.280022,36.7159065 Z M102.920022,26.3859065 C102.702615,26.988248 102.568051,27.6173344 102.520022,28.2559065 L111.850022,28.2559065 C111.995666,26.9964694 111.636062,25.7306609 110.850022,24.7359065 C109.934166,23.813497 108.654507,23.347833 107.360022,23.4659065 C106.649152,23.4518718 105.942445,23.5775841 105.280022,23.8359065 C104.726403,24.0644831 104.225952,24.4049259 103.810022,24.8359065 C103.422668,25.2949246 103.121185,25.8199785 102.920022,26.3859065 L102.920022,26.3859065 Z" id="形状" fill="#000000"></path>
            <path d="M128.000022,27.2259065 L127.730022,38.6459065 C127.695713,39.3051245 127.378604,39.9174728 126.860022,40.3259065 C126.293622,40.7767937 125.58328,41.007655 124.860022,40.9759065 L121.290022,40.9759065 L121.740022,22.4359065 C121.746195,21.6504832 122.115387,20.9120985 122.740022,20.4359065 C123.406564,19.9156283 124.234974,19.6465723 125.080022,19.6759065 L127.250022,19.6759065 L127.200022,22.9959065 C128.341156,21.935925 129.644227,21.0649601 131.060022,20.4159065 C132.322089,19.8659579 133.683346,19.5800939 135.060022,19.5759065 C136.377409,19.5392732 137.690012,19.7495611 138.930022,20.1959065 C139.889041,20.5698326 140.743346,21.1702482 141.420022,21.9459065 C142.069228,22.6874785 142.535083,23.571233 142.780022,24.5259065 C143.058345,25.6842946 143.176114,26.8754435 143.130022,28.0659065 L143.210022,40.9459065 L136.850022,40.9459065 L136.750022,28.9459065 C136.78684,28.2134371 136.719502,27.4794496 136.550022,26.7659065 C136.422365,26.2794041 136.197889,25.8236492 135.890022,25.4259065 C135.593911,25.0245174 135.192398,24.7129991 134.730022,24.5259065 C134.205055,24.3056181 133.639112,24.1999299 133.070022,24.2159065 C132.195235,24.2366639 131.34212,24.4922528 130.600022,24.9559065 C129.645893,25.6061306 128.773019,26.3682173 128.000022,27.2259065 L128.000022,27.2259065 Z" id="路径" fill="#000000"></path>
            <path d="M149.370022,14.8759065 C150.084728,14.3086201 150.978088,14.0143785 151.890022,14.0459065 L158.890022,14.0459065 C164.223356,14.0459065 168.463356,15.2592399 171.610022,17.6859065 C174.668135,19.9560324 176.674461,23.3696723 177.170022,27.1459065 C177.842623,30.7255849 176.743742,34.4096303 174.220022,37.0359065 C171.720022,39.6559065 168.336689,40.9625732 164.070022,40.9559319 L147.730022,40.9559319 L148.290022,17.0059065 C148.322181,16.1723837 148.716632,15.3944383 149.370022,14.8759065 L149.370022,14.8759065 Z M154.600022,36.4759065 L160.960022,36.4759065 C164.293356,36.4759065 166.753356,35.5959065 168.340022,33.8359065 C169.999629,32.0100725 170.700188,29.5080766 170.230022,27.0859065 C169.886025,24.5946278 168.515341,22.3609204 166.450022,20.9259065 C164.057622,19.2757858 161.193894,18.4475509 158.290022,18.5659065 L155.020022,18.5659065 L154.600022,36.4759065 Z" id="形状" fill="#000000"></path>
            <path d="M199.530022,27.1359065 L199.160022,40.9759065 L196.290022,40.9759065 C195.708311,40.9857655 195.142979,40.7830992 194.700022,40.4059065 C194.245004,39.9895237 193.999365,39.3919231 194.030022,38.7759065 L194.030022,38.3059065 C192.082403,40.0719037 189.528104,41.017675 186.900022,40.9459065 C185.805592,40.9567676 184.714005,40.8324947 183.650022,40.5759065 C182.745485,40.3384538 181.891617,39.9386271 181.130022,39.3959065 C180.432605,38.9045506 179.863324,38.2529634 179.470022,37.4959065 C178.66501,35.707895 178.784494,33.6393381 179.790022,31.9559065 C180.380062,31.0984218 181.183024,30.4091837 182.120022,29.9559065 C183.309896,29.3805295 184.581589,28.9926126 185.890022,28.8059065 C187.623834,28.5412981 189.376231,28.4175602 191.130022,28.4359065 L193.300022,28.4359065 L193.300022,27.2759065 C193.318258,26.754896 193.267824,26.2337521 193.150022,25.7259065 C193.03069,25.2994502 192.799346,24.9127252 192.480022,24.6059065 C192.098987,24.2916368 191.650762,24.069235 191.170022,23.9559065 C190.516459,23.7919821 189.843591,23.7179666 189.170022,23.7359065 C188.22085,23.7228622 187.273695,23.8269821 186.350022,24.0459065 C185.595703,24.2102749 184.853874,24.4274771 184.130022,24.6959065 C183.725332,24.8562839 183.274712,24.8562839 182.870022,24.6959065 C182.470061,24.5508653 182.147921,24.2468237 181.980022,23.8559065 L181.170022,21.7459065 C181.518968,21.4975754 181.898846,21.2958704 182.300022,21.1459065 C182.976181,20.8790937 183.66736,20.6520396 184.370022,20.4659065 C185.215719,20.2256248 186.07809,20.0484711 186.950022,19.9359065 C187.899871,19.7911628 188.85921,19.7176246 189.820022,19.7159065 C191.321867,19.6930675 192.821455,19.840678 194.290022,20.1559065 C195.374494,20.3824297 196.397602,20.8394183 197.290022,21.4959065 C198.077521,22.0823156 198.667152,22.8952386 198.980022,23.8259065 C199.374437,24.8836232 199.56118,26.0074753 199.530022,27.1359065 L199.530022,27.1359065 Z M193.170022,34.9459065 L193.230022,31.7359065 L190.850022,31.7359065 C189.97297,31.7277239 189.096717,31.791269 188.230022,31.9259065 C187.617171,32.017198 187.022946,32.2062696 186.470022,32.4859065 C186.069627,32.7149081 185.727428,33.0331525 185.470022,33.4159065 C185.24567,33.7941322 185.128161,34.2261507 185.130022,34.6659065 C185.088859,35.3910438 185.40662,36.0901172 185.980022,36.5359065 C186.704629,37.0124427 187.564485,37.2405678 188.430022,37.1859065 C189.279044,37.1915548 190.117764,36.9998472 190.880022,36.6259065 C191.715721,36.1718919 192.48606,35.6067526 193.170022,34.9459065 L193.170022,34.9459065 Z" id="形状" fill="#000000"></path>
            <path d="M213.030022,19.6059065 L217.920022,19.6059065 L217.760022,21.8759065 C217.745245,22.4930467 217.446307,23.0687797 216.950022,23.4359065 C216.399779,23.8413965 215.733529,24.0588046 215.050022,24.0559065 L212.920022,24.0559065 L212.660022,33.1759065 C212.519285,34.0403513 212.670586,34.9270468 213.090022,35.6959065 C213.388673,36.0365678 213.794134,36.2657415 214.240022,36.3459065 C214.694013,36.4158288 215.156032,36.4158288 215.610022,36.3459065 C216.173434,36.3027915 216.737748,36.417039 217.240022,36.6759065 C217.719746,36.9121816 218.109416,37.2983404 218.350022,37.7759065 L219.350022,39.6759065 C218.997358,39.8282657 218.63685,39.9617871 218.270022,40.0759065 C217.820022,40.2259065 217.410022,40.3559065 217.020022,40.4659065 C216.630022,40.5759065 216.390022,40.6459065 216.290022,40.6659065 C215.890022,40.7359065 215.440022,40.7959065 214.960022,40.8559065 C214.480022,40.9159065 214.020022,40.9159065 213.530022,40.9159065 C212.404923,40.9369868 211.282862,40.792096 210.200022,40.4859065 C209.339718,40.2477147 208.548094,39.8090661 207.890022,39.2059065 C207.278307,38.6174862 206.830286,37.8799748 206.590022,37.0659065 C206.30849,36.0647407 206.190305,35.0247144 206.240022,33.9859065 L206.490022,23.9859065 L202.490022,23.9859065 L202.620022,21.2459065 C202.646329,20.7674416 202.871041,20.321641 203.240022,20.0159065 C203.652724,19.6847886 204.17135,19.5142815 204.700022,19.5359065 L206.610022,19.5359065 L206.610022,17.2359065 C206.60427,16.6692462 206.858549,16.131207 207.300022,15.7759065 C207.77997,15.3891532 208.384179,15.1901199 209.000022,15.2159065 L213.050022,15.2159065 L213.030022,19.6059065 Z" id="路径" fill="#000000"></path>
            <path d="M239.900022,27.1359065 L239.530022,40.9759065 L236.660022,40.9759065 C236.078311,40.9857655 235.512979,40.7830992 235.070022,40.4059065 C234.615004,39.9895237 234.369365,39.3919231 234.400022,38.7759065 L234.400022,38.3059065 C232.452403,40.0719037 229.898104,41.017675 227.270022,40.9459065 C226.175565,40.9572797 225.083916,40.8329996 224.020022,40.5759065 C223.115485,40.3384538 222.261617,39.9386271 221.500022,39.3959065 C220.8002,38.9072267 220.230349,38.2549879 219.840022,37.4959065 C219.444423,36.6601561 219.262319,35.739325 219.310022,34.8159065 C219.333915,33.8039371 219.627336,32.8166608 220.160022,31.9559065 C220.750062,31.0984218 221.553024,30.4091837 222.490022,29.9559065 C223.679304,29.3790198 224.951237,28.9910296 226.260022,28.8059065 C227.993834,28.5412981 229.746231,28.4175602 231.500022,28.4359065 L233.670022,28.4359065 L233.670022,27.2759065 C233.696122,26.7552341 233.648996,26.2334756 233.530022,25.7259065 C233.41114,25.296938 233.175774,24.9092761 232.850022,24.6059065 C232.473902,24.28992 232.028484,24.0672109 231.550022,23.9559065 C230.89635,23.7925926 230.223565,23.7185863 229.550022,23.7359065 C228.60085,23.7228622 227.653695,23.8269821 226.730022,24.0459065 C225.972102,24.2089682 225.226856,24.4261924 224.500022,24.6959065 C224.098669,24.8556624 223.651376,24.8556624 223.250022,24.6959065 C222.850061,24.5508653 222.527921,24.2468237 222.360022,23.8559065 L221.550022,21.7459065 C221.898968,21.4975754 222.278846,21.2958704 222.680022,21.1459065 C223.356181,20.8790937 224.04736,20.6520396 224.750022,20.4659065 C225.592325,20.2256067 226.451373,20.0484489 227.320022,19.9359065 C228.273272,19.7915504 229.235907,19.7180158 230.200022,19.7159065 C231.701867,19.6930675 233.201455,19.840678 234.670022,20.1559065 C235.754494,20.3824297 236.777602,20.8394183 237.670022,21.4959065 C238.454357,22.0854339 239.043205,22.8972786 239.360022,23.8259065 C239.745821,24.8856605 239.929001,26.0084849 239.900022,27.1359065 L239.900022,27.1359065 Z M233.530022,34.9459065 L233.600022,31.7359065 L231.210022,31.7359065 C230.332958,31.7273197 229.456672,31.7908671 228.590022,31.9259065 C227.977171,32.017198 227.382946,32.2062696 226.830022,32.4859065 C226.426717,32.7109321 226.083674,33.0299629 225.830022,33.4159065 C225.601317,33.7922755 225.483467,34.2255465 225.490022,34.6659065 C225.448859,35.3910438 225.76662,36.0901172 226.340022,36.5359065 C227.06184,37.0103416 227.917841,37.2383748 228.780022,37.1859065 C229.632377,37.1927417 230.474614,37.0010128 231.240022,36.6259065 C232.07592,36.172205 232.846299,35.607036 233.530022,34.9459065 L233.530022,34.9459065 Z" id="形状" fill="#000000"></path>
            <path d="M93.5300224,17.2159065 L79.2000224,36.2159065 L95.2800224,36.2159065 L95.0600224,38.0759065 C94.8724991,39.8247631 93.3679756,41.1330444 91.6100224,41.0759065 L71.4000224,41.0759065 C70.6482183,41.1145588 69.9284449,40.7678617 69.4900224,40.1559065 C69.0529984,39.6400401 69.0121471,38.8965477 69.3900224,38.3359065 L84.4800224,18.7959065 L70.4800224,18.7959065 L70.7400224,16.0059065 C70.7681734,15.4663399 71.0358998,14.9675619 71.4700224,14.6459065 C71.9366237,14.2972338 72.5078306,14.1174094 73.0900224,14.1359065 L91.2900224,14.1359065 C92.1340911,14.0905412 92.9461439,14.4647591 93.4600224,15.1359065 C93.965338,15.7281644 93.9943763,16.5910156 93.5300224,17.2159065 Z" id="路径" fill="#000000"></path>
            <path d="M46.4900224,27.2459065 C45.1100224,31.2459065 40.0700224,32.6059065 36.0400224,31.3159065 C29.7900224,29.3159065 22.0400224,22.6859065 13.5500224,28.7959065 C6.3900224,33.9659065 9.3700224,42.9859065 14.4900224,45.9959065 C18.3300224,48.2359065 23.6700224,48.9959065 26.8000224,46.2859065 C29.3000224,44.1559065 30.6700224,38.5959065 26.4500224,36.6859065 C25.0100224,36.0359065 22.1800224,35.8859065 20.6200224,37.6859065 C19.6427932,38.6879915 19.2427269,40.1185219 19.5583486,41.4821693 C19.8739702,42.8458167 20.861885,43.9550933 22.1800224,44.4259065 C19.2047832,44.2306964 16.7981503,41.9294327 16.4700224,38.9659065 C15.3300224,30.0959065 26.6800224,28.6359065 32.0600224,31.9659065 C41.7400224,37.9659065 38.3000224,51.4959065 23.9100224,53.9659065 C21.1671776,54.3955224 18.371677,54.3617195 15.6400224,53.8659065 C10.5943674,51.3125304 6.4185617,47.3211561 3.6400224,42.3959065 C4.5225458,42.2259514 5.2889155,41.6836832 5.74283551,40.9079972 C6.19675552,40.1323111 6.29413171,39.1985578 6.0100224,38.3459065 C3.3400224,27.0759065 7.8300224,25.1659065 10.5700224,23.0559065 C13.3100224,20.9459065 12.2300224,16.9959065 6.8400224,17.8659065 C4.3670863,18.3369152 2.18513584,19.7771465 0.780022401,21.8659065 C1.10155571,20.4585874 1.53973677,19.0804913 2.0900224,17.7459065 C2.89279234,15.7488828 3.92648808,13.8526552 5.1700224,12.0959065 C7.35721245,10.7737596 9.82238575,9.97942601 12.3700224,9.77590652 C29.0500224,8.10590652 31.4300224,22.7759065 38.7200224,24.9859065 C48.8600224,28.0759065 43.9000224,14.3759065 43.9000224,14.3759065 C43.9000224,14.3759065 48.5600224,21.3459065 46.4900224,27.2459065 Z" id="路径" fill="#308BDD"></path>
            <path d="M40.1400224,19.6359065 L35.0100224,22.6359065 L29.0100224,26.1159065 C28.7006213,26.2945393 28.3194235,26.2945393 28.0100224,26.1159065 L16.8100224,19.6459065 C16.5016202,19.4670076 16.3117943,19.1374408 16.3117943,18.7809065 C16.3117943,18.4243722 16.5016202,18.0948054 16.8100224,17.9159065 L25.5000224,12.8659065 L27.9200224,11.4559065 C28.2294235,11.2772737 28.6106213,11.2772737 28.9200224,11.4559065 L40.1200224,17.9259065 C40.4210361,18.1036682 40.6073695,18.4257163 40.6115265,18.7752757 C40.6155463,19.124835 40.4367961,19.4511531 40.1400224,19.6359065 L40.1400224,19.6359065 Z" id="路径" fill="#FFFFFF"></path>
            <path d="M27.2100224,30.2959065 L27.2100224,30.4359065 L27.2100224,37.0959065 L27.2100224,43.2059065 C27.2114469,43.5638818 27.0214107,43.8953128 26.7117484,44.0749169 C26.4020862,44.254521 26.0200389,44.2548984 25.7100224,44.0759065 L19.5200224,40.5059065 L16.5200224,38.7559065 L14.4300145,37.5459065 C14.1193882,37.3665656 13.9285984,37.0345913 13.9300145,36.6759065 L13.9300145,28.5659065 L13.9300145,23.7559065 C13.9321649,23.3997179 14.1236101,23.0715568 14.4326202,22.894391 C14.7416303,22.7172253 15.1215521,22.7178025 15.4300145,22.8959065 L21.2900224,26.2859065 L26.7400224,29.4259065 C27.0391411,29.6127391 27.2177294,29.9433175 27.2100224,30.2959065 L27.2100224,30.2959065 Z" id="路径" fill="#FFFFFF"></path>
            <path d="M43.0600304,23.7759065 L43.0600304,25.1159065 L43.0600304,30.9259065 L43.0600304,36.6859065 C43.0578789,37.0410176 42.8675669,37.3683542 42.5600224,37.5459065 L37.5600224,40.4559065 L31.3600224,44.0559065 C31.0515521,44.2340105 30.6716303,44.2345878 30.3626202,44.057422 C30.0536101,43.8802562 29.8621649,43.5520951 29.8600224,43.1959065 L29.8600224,30.9859065 L29.8600224,30.2859065 C29.8600224,29.9328392 30.0463229,29.6059708 30.3500224,29.4259065 L30.8600224,29.1259065 L38.2600224,24.8259065 L41.5600224,22.9059065 C41.8700389,22.7269146 42.2520862,22.7272921 42.5617484,22.9068962 C42.8714107,23.0865003 43.0614469,23.4179312 43.0600304,23.7759065 Z" id="路径" fill="#FFFFFF"></path>
            <g id="编组" opacity="0.15" transform="translate(13.890022, 12.845907)" fill="#308BDD">
                <path d="M7.37,13.44 C4.73108239,13.3806394 2.14440207,14.1808608 0,15.72 L0,10.91 C0.00214249877,10.5538114 0.193587744,10.2256503 0.502597798,10.0484845 C0.811607851,9.87131877 1.19152975,9.87189603 1.5,10.05 L7.37,13.44 Z" id="路径"></path>
                <path d="M13.32,17.59 L13.32,24.25 C13.0860749,24.0915044 12.8384179,23.9542891 12.58,23.84 C11.14,23.19 8.31,23.04 6.75,24.84 C6.05847471,25.6139415 5.65573398,26.6031292 5.61,27.64 L2.61,25.89 C1.87,19.42 7.96,17.03 13.32,17.59 Z" id="路径"></path>
                <path d="M21.12,9.77 L15.12,13.25 C14.8105989,13.4286328 14.4294011,13.4286328 14.12,13.25 L2.92,6.78 C2.61159783,6.60110112 2.42177186,6.2715343 2.42177186,5.915 C2.42177186,5.5584657 2.61159783,5.22889888 2.92,5.05 L11.61,0 C15.76,2.88 18.3,7.03 21.12,9.77 Z" id="路径"></path>
                <path d="M23.62,27.61 L17.42,31.21 C17.1115297,31.388104 16.7316079,31.3886812 16.4225978,31.2115155 C16.1135877,31.0343497 15.9221425,30.7061886 15.92,30.35 L15.92,18.14 C16.6940959,18.3835206 17.4360915,18.7192652 18.13,19.14 C21.2565998,20.8726164 23.3150824,24.0484538 23.62,27.61 Z" id="路径"></path>
                <path d="M29.17,12.27 L29.17,18.08 C26.9645883,19.068733 24.4715947,19.2076283 22.17,18.47 C20.3984859,17.8425754 18.6654824,17.111308 16.98,16.28 L24.38,11.98 C24.5327119,12.0470555 24.6897272,12.1038483 24.85,12.15 C26.2282553,12.7103928 27.7627611,12.753018 29.17,12.27 L29.17,12.27 Z" id="路径"></path>
            </g>
        </g>
    </g>
</svg>